# xmcd
#
# Track frame offsets:
#	150
#	11132
#	20512
#	34297
#	45332
#	58380
#	69967
#	80297
#	92547
#	105020
#
# Disc length: 1549 seconds
#
# Revision: 0
# Processed by: cddbd v1.5.2PL0 Copyright (c) Steve Scherf et al.
# Submitted via: dBpowerAMP V4.0
#
DISCID=6f060b0a
DTITLE=George Jones - Super Hits
DYEAR=1987
DGENRE=Country
TTITLE0=Tender Years
TTITLE1=The Race Is On
TTITLE2=A Good Year For The Roses
TTITLE3=Say It's Not You
TTITLE4=Things Have Gone To Pieces
TTITLE5=White Lightning
TTITLE6=Walk Through This World With Me
TTITLE7=Take Me
TTITLE8=If My Heart Had Windows
TTITLE9=I'll Share My World With You
EXTD=
EXTT0=
EXTT1=
EXTT2=
EXTT3=
EXTT4=
EXTT5=
EXTT6=
EXTT7=
EXTT8=
EXTT9=
PLAYORDER=
